<svg width="198" height="36" viewBox="0 0 198 36" fill="none" xmlns="http://www.w3.org/2000/svg">
<g clip-path="url(#clip0_51_146)">
<g clip-path="url(#clip1_51_146)">
<g clip-path="url(#clip2_51_146)">
<g clip-path="url(#clip3_51_146)">
<g clip-path="url(#clip4_51_146)">
<g clip-path="url(#clip5_51_146)">
<g clip-path="url(#clip6_51_146)">
<g clip-path="url(#clip7_51_146)">
<path d="M96.9048 26.0962V20.9326C96.9048 20.3092 96.6763 19.7047 96.2193 19.1192C95.7623 18.5392 94.9558 18.2085 93.7999 18.1272C93.0472 19.0487 92.1333 19.5095 91.058 19.5095C90.144 19.5095 89.3644 19.1843 88.7193 18.5337C88.0741 17.8832 87.7515 17.0836 87.7515 16.1349C87.7515 15.1862 88.0741 14.3866 88.7193 13.7361C89.3644 13.0855 90.144 12.7603 91.058 12.7603C91.5419 12.7603 92.0204 12.8958 92.4935 13.1668C92.9612 13.4379 93.3833 13.7632 93.7596 14.1426C94.351 14.1155 94.808 14.0207 95.1306 13.858C95.4531 13.6954 95.6897 13.4975 95.8402 13.2644C95.9854 13.0367 96.0714 12.7738 96.0983 12.4757C96.1252 12.1775 96.1386 11.8793 96.1386 11.5812V7.47469C96.1386 6.79705 95.9316 6.17362 95.5177 5.60441C95.0983 5.03519 94.3913 4.75058 93.3967 4.75058H84.9693L84.929 31.585C84.929 32.1272 84.679 32.5392 84.179 32.8211C83.6843 33.1084 83.1413 33.252 82.5499 33.252C80.9639 33.252 80.1709 32.6015 80.1709 31.3004V3.08359C80.1709 2.10779 80.4209 1.45726 80.9209 1.132C81.4155 0.806731 82.0123 0.644096 82.7112 0.644096H94.4048C95.1037 0.644096 95.851 0.779623 96.6467 1.05068C97.437 1.32173 98.1816 1.68766 98.8806 2.14845H98.8402C99.5392 2.66346 100.058 3.3411 100.397 4.18137C100.73 5.02164 100.897 5.99744 100.897 7.10876V11.7031C100.897 12.7874 100.668 13.6737 100.211 14.3622C99.7542 15.0561 99.2703 15.6063 98.7596 16.0129C99.1091 16.2298 99.4451 16.452 99.7677 16.6797C100.09 16.9128 100.359 17.1649 100.574 17.436C100.924 17.8154 101.2 18.2627 101.405 18.7777C101.604 19.2927 101.703 19.9026 101.703 20.6073V26.4214C101.703 28.6441 100.843 30.284 99.1225 31.3411C98.2623 31.8832 97.4505 32.2898 96.687 32.5608C95.9182 32.8319 95.1574 32.9674 94.4048 32.9674H88.437C87.98 32.9674 87.6252 32.7777 87.3725 32.3982C87.1144 32.0187 86.9854 31.5173 86.9854 30.8939C86.9854 29.5386 87.5499 28.8609 88.679 28.8609H94.2031C95.1978 28.8609 95.8967 28.5763 96.2999 28.0071C96.7031 27.4379 96.9048 26.8009 96.9048 26.0962ZM113.84 8.45049H120.292C120.991 8.45049 121.708 8.59957 122.445 8.89773C123.187 9.19589 123.907 9.57537 124.606 10.0362H124.566C125.265 10.5512 125.803 11.2207 126.179 12.0447C126.555 12.8741 126.743 13.8309 126.743 14.9152V26.4621C126.743 28.6848 126.018 30.3246 124.566 31.3818C123.141 32.4118 121.717 32.9268 120.292 32.9268H113.84C113.141 32.9268 112.429 32.8048 111.703 32.5608C110.977 32.3169 110.265 31.9239 109.566 31.3818C108.114 30.3517 107.389 28.7119 107.389 26.4621V14.9152C107.389 13.8309 107.577 12.8741 107.953 12.0447C108.329 11.2207 108.867 10.5512 109.566 10.0362H109.526C110.198 9.57537 110.91 9.19589 111.663 8.89773C112.415 8.59957 113.141 8.45049 113.84 8.45049ZM114.566 29.1049H119.566C120.561 29.1049 121.265 28.8203 121.679 28.2511C122.098 27.6819 122.308 27.072 122.308 26.4214V14.9558C122.308 14.2782 122.098 13.6602 121.679 13.1018C121.265 12.5488 120.561 12.2724 119.566 12.2724H114.566C113.571 12.2724 112.864 12.5488 112.445 13.1018C112.031 13.6602 111.824 14.2782 111.824 14.9558V26.4214C111.824 27.072 112.031 27.6819 112.445 28.2511C112.864 28.8203 113.571 29.1049 114.566 29.1049ZM138.276 8.45049H144.727C145.421 8.45049 146.139 8.59957 146.881 8.89773C147.617 9.19589 148.338 9.57537 149.042 10.0362H148.993C149.698 10.5512 150.235 11.2207 150.606 12.0447C150.988 12.8741 151.179 13.8309 151.179 14.9152V26.4621C151.179 28.6848 150.45 30.3246 148.993 31.3818C147.574 32.4118 146.152 32.9268 144.727 32.9268H138.276C137.577 32.9268 136.864 32.8048 136.139 32.5608C135.413 32.3169 134.7 31.9239 134.002 31.3818C132.55 30.3517 131.824 28.7119 131.824 26.4621V14.9152C131.824 13.8309 132.012 12.8741 132.389 12.0447C132.765 11.2207 133.303 10.5512 134.002 10.0362H133.961C134.633 9.57537 135.343 9.19589 136.09 8.89773C136.848 8.59957 137.577 8.45049 138.276 8.45049ZM139.001 29.1049H144.001C144.996 29.1049 145.7 28.8203 146.114 28.2511C146.534 27.6819 146.743 27.072 146.743 26.4214V14.9558C146.743 14.2782 146.534 13.6602 146.114 13.1018C145.7 12.5488 144.996 12.2724 144.001 12.2724H139.001C138.001 12.2724 137.295 12.5488 136.881 13.1018C136.467 13.6602 136.26 14.2782 136.26 14.9558V26.4214C136.26 27.072 136.467 27.6819 136.881 28.2511C137.295 28.8203 138.001 29.1049 139.001 29.1049ZM173.55 11.3779L160.687 26.1368V31.3004C160.687 32.5744 159.948 33.2114 158.469 33.2114C156.991 33.2114 156.251 32.5744 156.251 31.3004V2.35175C156.251 1.05068 156.991 0.400146 158.469 0.400146C159.948 0.400146 160.687 1.05068 160.687 2.35175V19.5909C161.359 18.7777 162.106 17.9022 162.929 16.9643C163.746 16.0319 164.566 15.0832 165.389 14.1183C166.206 13.1587 167.018 12.21 167.824 11.2722C168.631 10.3397 169.383 9.46694 170.082 8.65378V8.69444C170.566 8.12522 171.05 7.84061 171.534 7.84061C171.803 7.84061 172.066 7.90024 172.324 8.01951C172.577 8.14419 172.851 8.31496 173.147 8.5318H173.106C173.751 9.07391 174.074 9.61602 174.074 10.1581C174.074 10.3479 174.034 10.5566 173.953 10.7843C173.872 11.0174 173.738 11.2152 173.55 11.3779ZM169.719 21.7457L174.155 30.2027C174.343 30.555 174.437 30.921 174.437 31.3004C174.437 32.0052 174.034 32.5337 173.227 32.8861C172.69 33.2114 172.206 33.374 171.776 33.374C171.48 33.374 171.198 33.2737 170.929 33.0731C170.66 32.8671 170.445 32.6151 170.284 32.3169L166.251 24.4698C166.01 24.0633 165.889 23.6567 165.889 23.2501C165.889 22.5725 166.238 22.0032 166.937 21.5425C167.125 21.4069 167.321 21.2849 167.526 21.1765C167.725 21.0681 167.945 20.9868 168.187 20.9326C168.483 20.8784 168.765 20.9326 169.034 21.0952C169.303 21.2578 169.531 21.4747 169.719 21.7457ZM184.921 18.6964H190.848C191.52 18.6964 192.241 18.8509 193.01 19.1599C193.773 19.4743 194.491 19.8619 195.163 20.3227H195.122C195.821 20.8377 196.359 21.5018 196.735 22.315C197.112 23.1281 197.3 24.1039 197.3 25.2424V26.4621C197.3 28.6848 196.574 30.3246 195.122 31.3818C194.423 31.9239 193.711 32.3169 192.985 32.5608C192.26 32.8048 191.547 32.9268 190.848 32.9268H183.993C183.294 32.9268 182.582 32.8048 181.856 32.5608C181.13 32.3169 180.418 31.9239 179.719 31.3818C178.268 30.3517 177.542 28.7119 177.542 26.4621V25.9742C177.542 24.8087 178.281 24.2395 179.76 24.2666C181.265 24.2666 182.018 24.8358 182.018 25.9742V26.4214C182.018 27.072 182.219 27.6819 182.622 28.2511C183.026 28.8203 183.738 29.1049 184.76 29.1049H190.082C191.104 29.1049 191.816 28.8203 192.219 28.2511C192.622 27.6819 192.824 27.072 192.824 26.4214V25.283C192.824 24.9306 192.778 24.5918 192.687 24.2666C192.59 23.9413 192.434 23.6486 192.219 23.3883C192.004 23.1335 191.722 22.9248 191.372 22.7622C191.023 22.5996 190.593 22.5183 190.082 22.5183H184.195C182.824 22.5183 181.386 22.0304 179.88 21.0546C178.456 20.133 177.743 18.5473 177.743 16.2975V14.9152C177.743 13.8309 177.932 12.8741 178.308 12.0447C178.684 11.2207 179.222 10.5512 179.921 10.0362H179.88C180.553 9.57537 181.265 9.19589 182.018 8.89773C182.77 8.59957 183.496 8.45049 184.195 8.45049H190.647C191.346 8.45049 192.066 8.59957 192.808 8.89773C193.544 9.19589 194.262 9.57537 194.961 10.0362H194.921C195.62 10.5512 196.157 11.2207 196.534 12.0447C196.91 12.8741 197.098 13.8309 197.098 14.9152V15.2811C197.098 15.8503 196.91 16.2623 196.534 16.5171C196.157 16.7773 195.606 16.921 194.88 16.9481C193.402 16.9752 192.663 16.4195 192.663 15.2811V14.9558C192.663 14.2782 192.456 13.6602 192.042 13.1018C191.622 12.5488 190.915 12.2724 189.921 12.2724H184.921C183.926 12.2724 183.222 12.5488 182.808 13.1018C182.389 13.6602 182.179 14.2782 182.179 14.9558V15.9316C182.179 16.6364 182.389 17.2733 182.808 17.8425C183.222 18.4118 183.926 18.6964 184.921 18.6964Z" fill="#2C1810"/>
</g>
</g>
</g>
</g>
<g clip-path="url(#clip8_51_146)">
<g clip-path="url(#clip9_51_146)">
<path d="M26.0843 26.7335C20.3392 24.3764 17.4198 24.121 14.3289 23.8505C11.2817 23.5853 8.12684 23.3043 2.15664 20.8911C1.71305 21.5662 1.34674 22.8773 1.05176 24.4664C7.18988 26.0794 10.2972 25.9558 13.2946 25.8307C16.3269 25.7048 19.4602 25.5752 25.5901 27.2145C27.6647 27.7696 29.28 28.3158 30.5647 28.8447C29.4234 28.2087 27.9708 27.5074 26.0843 26.7335Z" fill="black"/>
<path d="M25.3546 28.8568C19.3599 27.2528 16.4324 27.3734 13.331 27.5022C10.2771 27.6296 7.11409 27.7555 0.893483 26.1274C0.690937 27.4143 0.527149 28.707 0.402344 30.0039C6.47063 30.7298 9.47913 30.2046 12.3814 29.6922C15.3691 29.1655 18.4586 28.6208 24.7505 29.4315C27.2114 29.7491 29.0653 30.1357 30.4956 30.5553C29.2258 30.0166 27.5651 29.4479 25.3546 28.8568Z" fill="black"/>
<path d="M12.5397 31.3502C9.5743 31.8724 6.50263 32.4081 0.316211 31.6724C0.189897 33.0921 0.102963 34.404 0.0561523 35.3772C6.27155 35.333 9.20427 34.4175 12.0434 33.5304C14.9419 32.6254 17.9385 31.6896 24.2802 31.6896C26.4246 31.6896 28.1247 31.799 29.5 31.9795C28.2354 31.6574 26.6542 31.3569 24.6354 31.097C18.4832 30.3028 15.5958 30.8115 12.5397 31.3502Z" fill="black"/>
<path d="M59.2089 25.8501C62.2129 25.9737 65.3254 26.0996 71.4933 24.4753C71.1887 22.7469 70.8216 21.4066 70.3944 20.8918C64.3922 23.3238 61.2299 23.6032 58.1738 23.87C55.0829 24.1404 52.1628 24.3944 46.4177 26.7537C44.5312 27.5284 43.0771 28.2296 41.9365 28.8672C43.2212 28.3375 44.8373 27.7898 46.914 27.2354C53.0425 25.5946 56.1773 25.725 59.2089 25.8501Z" fill="black"/>
<path d="M69.9309 19.3387L63.4265 0.400146C58.7187 2.28441 56.208 2.50318 53.7791 2.71521C51.2959 2.93173 48.9509 3.13627 44.3374 5.02952C37.9393 7.65626 37.5923 9.29703 37.4065 10.1789C37.3166 10.6022 37.2104 11.0757 36.6353 11.3843V32.9054C36.6382 32.9009 36.6442 32.8964 36.6479 32.8905C36.6746 32.8515 36.6984 32.8043 36.7222 32.7526C36.7705 32.6342 36.8069 32.4919 36.8515 32.2843C37.1413 30.9125 37.6257 28.6162 46.0754 25.1496C51.9483 22.7371 55.0742 22.4652 58.0975 22.2007C61.0637 21.9422 64.1301 21.6755 69.9309 19.3387Z" fill="black"/>
<path d="M60.1201 29.7117C63.0253 30.2241 66.0353 30.7478 72.1132 30.0218C71.9929 28.723 71.8361 27.4278 71.6429 26.1379C65.403 27.7742 62.2332 27.6491 59.1712 27.521C56.0698 27.3929 53.1431 27.2722 47.1476 28.8763C44.9371 29.4682 43.2772 30.0368 42.0044 30.577C43.4355 30.1575 45.2901 29.7709 47.7509 29.4532C54.0414 28.6403 57.1339 29.185 60.1201 29.7117Z" fill="black"/>
<path d="M60.46 33.5506C63.2984 34.4369 66.2318 35.3532 72.4472 35.3981C72.3937 34.2668 72.3075 32.9909 72.1976 31.691C66.0052 32.429 62.9298 31.8926 59.9637 31.3696C56.9076 30.831 54.021 30.323 47.868 31.1164C45.8507 31.3771 44.2688 31.6783 43.0049 31.999C44.3795 31.8207 46.0788 31.709 48.2231 31.709C54.5656 31.709 57.5622 32.6455 60.46 33.5506Z" fill="black"/>
<path d="M35.6525 32.2666C35.677 32.3819 35.6978 32.4756 35.7201 32.5617V11.3853C35.145 11.0766 35.0388 10.6031 34.9496 10.1798C34.7631 9.29799 34.4169 7.65722 28.0179 5.03048C23.4045 3.13723 21.0595 2.93269 18.5771 2.71617C16.1474 2.50414 13.6382 2.28462 8.93186 0.401855L2.56934 19.3179C8.37236 21.6562 11.4396 21.9244 14.4079 22.1829C17.4306 22.4474 20.5557 22.7201 26.4293 25.1303C34.879 28.5977 35.3635 30.8948 35.6525 32.2666Z" fill="black"/>
</g>
</g>
</g>
</g>
</g>
</g>
<defs>
<clipPath id="clip0_51_146">
<rect width="197.6" height="35.2" fill="white" transform="translate(0 0.399902)"/>
</clipPath>
<clipPath id="clip1_51_146">
<rect width="197.6" height="35.2" fill="white" transform="translate(-0.120117 0.299072)"/>
</clipPath>
<clipPath id="clip2_51_146">
<rect width="197.248" height="34.9979" fill="white" transform="translate(0.0561523 0.400146)"/>
</clipPath>
<clipPath id="clip3_51_146">
<rect width="197.248" height="34.9979" fill="white" transform="translate(0.0561523 0.400146)"/>
</clipPath>
<clipPath id="clip4_51_146">
<rect width="117.137" height="32.9739" fill="white" transform="translate(80.167 1.41235)"/>
</clipPath>
<clipPath id="clip5_51_146">
<rect width="117.137" height="32.9739" fill="white" transform="translate(80.167 1.41235)"/>
</clipPath>
<clipPath id="clip6_51_146">
<rect width="117.137" height="32.9739" fill="white" transform="translate(80.167 1.41235)"/>
</clipPath>
<clipPath id="clip7_51_146">
<rect width="117.137" height="32.9739" fill="white" transform="translate(80.167 1.41235)"/>
</clipPath>
<clipPath id="clip8_51_146">
<rect width="72.3907" height="34.9979" fill="white" transform="translate(0.0561523 0.400146)"/>
</clipPath>
<clipPath id="clip9_51_146">
<rect width="72.3907" height="34.9979" fill="white" transform="translate(0.0561523 0.400146)"/>
</clipPath>
</defs>
</svg>
