<svg width="15" height="15" viewBox="0 0 15 15" fill="none" xmlns="http://www.w3.org/2000/svg">
<path fill-rule="evenodd" clip-rule="evenodd" d="M9.67313 5.92517C9.67313 8.12339 7.89764 9.89671 5.71817 9.89671C3.53869 9.89671 1.76321 8.12339 1.76321 5.92517C1.76321 3.72696 3.53869 1.95364 5.71817 1.95364C7.89764 1.95364 9.67313 3.72696 9.67313 5.92517ZM8.77732 10.7572C7.89318 11.3214 6.84373 11.6482 5.71817 11.6482C2.56658 11.6482 0.0117188 9.08591 0.0117188 5.92517C0.0117188 2.76443 2.56658 0.202148 5.71817 0.202148C8.86975 0.202148 11.4246 2.76443 11.4246 5.92517C11.4246 7.3232 10.9248 8.60414 10.0946 9.59807L13.7226 13.2513L12.4884 14.4941L8.77732 10.7572Z" fill="black"/>
</svg>
