<svg width="26" height="26" viewBox="0 0 26 26" fill="none" xmlns="http://www.w3.org/2000/svg">
<path d="M23.9778 26L14.8778 16.9C14.1556 17.4778 13.325 17.9352 12.3861 18.2722C11.4472 18.6093 10.4481 18.7778 9.38889 18.7778C6.76482 18.7778 4.54398 17.869 2.72639 16.0514C0.908796 14.2338 0 12.013 0 9.38889C0 6.76482 0.908796 4.54398 2.72639 2.72639C4.54398 0.908796 6.76482 0 9.38889 0C12.013 0 14.2338 0.908796 16.0514 2.72639C17.869 4.54398 18.7778 6.76482 18.7778 9.38889C18.7778 10.4481 18.6093 11.4472 18.2722 12.3861C17.9352 13.325 17.4778 14.1556 16.9 14.8778L26 23.9778L23.9778 26ZM9.38889 15.8889C11.1944 15.8889 12.7292 15.2569 13.9931 13.9931C15.2569 12.7292 15.8889 11.1944 15.8889 9.38889C15.8889 7.58333 15.2569 6.04861 13.9931 4.78472C12.7292 3.52083 11.1944 2.88889 9.38889 2.88889C7.58333 2.88889 6.04861 3.52083 4.78472 4.78472C3.52083 6.04861 2.88889 7.58333 2.88889 9.38889C2.88889 11.1944 3.52083 12.7292 4.78472 13.9931C6.04861 15.2569 7.58333 15.8889 9.38889 15.8889Z" fill="black"/>
</svg>
